<svg width="3rem" height="3rem" viewBox="0 0 895 1015" version="1.1" xmlns="http://www.w3.org/2000/svg" xmlns:xlink="http://www.w3.org/1999/xlink" xml:space="preserve" xmlns:serif="http://www.serif.com/" style="fill-rule:evenodd;clip-rule:evenodd;stroke-linejoin:round;stroke-miterlimit:2;">
    <g transform="matrix(0.822806,0,0,0.822806,447.401,507.397)">
        <g transform="matrix(1,0,0,1,-543.75,-616.667)">
            <g transform="matrix(4.16667,0,0,4.16667,0,0)">
                <path d="M88.112,77.88C81.353,77.88 75.874,86.032 75.874,96.089C75.874,106.145 81.353,114.297 88.112,114.297C94.871,114.297 100.351,106.145 100.351,96.089C100.351,86.032 94.871,77.88 88.112,77.88Z" style="fill:rgb(71,142,204);fill-rule:nonzero;"/>
                <path d="M172.112,77.88C165.354,77.88 159.875,86.032 159.875,96.089C159.875,106.145 165.354,114.297 172.112,114.297C178.872,114.297 184.351,106.145 184.351,96.089C184.351,86.032 178.872,77.88 172.112,77.88Z" style="fill:rgb(71,142,204);fill-rule:nonzero;"/>
                <path class="robot" d="M241.973,141.305C241.973,155.444 230.404,167.012 216.266,167.012L44.139,167.012C30,167.012 18.432,155.444 18.432,141.305L18.432,38.474C18.432,24.335 30,12.767 44.139,12.767L216.266,12.767C230.404,12.767 241.973,24.335 241.973,38.474L241.973,141.305ZM251.335,55.192L250.35,55.031L250.35,32.988C250.35,15.314 235.89,0.854 218.216,0.854L42.188,0.854C24.515,0.854 10.054,15.314 10.054,32.988L10.054,55.031L9.07,55.192C3.984,56.026 0,60.716 0,65.871L0,101.779C0,106.933 3.984,111.624 9.07,112.458L10.054,112.619L10.054,148.706C10.054,166.379 24.515,180.839 42.188,180.839L92.455,180.839L92.455,189.339L88.11,189.339L72.319,195.705L72.319,198.04L66.389,198.04L66.389,204.249C54.154,204.885 44.395,215.038 44.395,227.429L44.395,234.475L42.019,234.475C39.091,237.403 37.449,239.045 34.521,241.973L34.521,262.663L42.019,270.159L57.728,270.159L60.941,266.946L60.941,256.336L67.124,256.363L67.124,239.271C67.124,236.622 64.977,234.475 62.328,234.475L59.391,234.475L59.391,227.429C59.391,223.313 62.436,219.905 66.389,219.313L66.389,227.605L73.213,227.605L73.213,252.459L81.479,261.839L81.479,274.69C75.129,274.69 68.171,275.292 59.051,283.146L59.051,296L126.409,296L126.409,270.906L134.64,270.906L134.64,296L201.997,296L201.997,283.146C192.879,275.292 185.921,274.69 179.569,274.69L179.569,261.839L188.176,252.459L188.176,227.605L194.66,227.605L194.66,219.291C198.685,219.818 201.805,223.262 201.805,227.429L201.805,234.475L198.868,234.475C196.219,234.475 194.072,236.622 194.072,239.271L194.072,256.363L200.255,256.336L200.255,266.946L203.468,270.159L219.177,270.159C222.105,267.231 223.747,265.59 226.675,262.663L226.675,241.973L219.177,234.475L216.801,234.475L216.801,227.429C216.801,214.989 206.963,204.806 194.66,204.244L194.66,198.04L188.731,198.04L188.731,195.705L172.939,189.339L168.593,189.339L168.593,180.839L218.216,180.839C235.89,180.839 250.35,166.379 250.35,148.706L250.35,112.619L251.335,112.458C256.42,111.624 260.405,106.933 260.405,101.779L260.405,65.871C260.405,60.717 256.42,56.026 251.335,55.192Z" style="fill-rule:nonzero;"/>
            </g>
        </g>
    </g>
</svg>
