<svg id="Layer_1" data-name="Layer 1" xmlns="http://www.w3.org/2000/svg" viewBox="0 0 196 158"><defs><style>.cls-1{fill:#c4a057;}.cls-2{fill:#eabd6c;}.cls-3{fill:#fff;}.cls-4{fill:#efefef;}</style></defs><g id="Donja"><polygon class="cls-1" points="11.06 147.95 140.5 150.54 140.5 85.4 11.06 82.8 11.06 147.95"/><polygon class="cls-2" points="140.5 85.4 186.35 67.57 186.35 131.47 140.5 150.54 140.5 85.4"/><polygon class="cls-2" points="186.35 67.57 56.15 65.05 11.06 82.8 140.5 85.4 186.35 67.57"/></g><g id="Gornja"><polygon class="cls-1" points="11.06 83.09 101.75 84.68 101.75 19.53 11.06 17.93 11.06 83.09"/><polygon class="cls-2" points="101.75 19.62 147.65 10.5 148.31 66.89 101.75 84.77 101.75 19.62"/><polygon class="cls-2" points="147.97 10.5 55.52 9.74 10.91 17.93 101.75 19.62 147.97 10.5"/></g><g id="Sticker_donji" data-name="Sticker donji"><polygon class="cls-3" points="42.5 128.43 70.31 128.92 70.31 108.94 42.5 108.45 42.5 128.43"/><polygon class="cls-4" points="43.4 122.88 69.41 123.37 69.41 121.78 43.4 121.29 43.4 122.88"/><polygon class="cls-4" points="44.06 117.69 50.26 117.93 50.26 110.14 44.06 109.89 44.06 117.69"/><polygon class="cls-4" points="43.4 124.96 69.41 125.45 69.41 123.86 43.4 123.37 43.4 124.96"/><polygon class="cls-4" points="43.4 127.08 69.41 127.57 69.41 125.98 43.4 125.49 43.4 127.08"/></g><g id="Sticker_gornji" data-name="Sticker gornji"><polygon class="cls-3" points="42.5 61.85 70.31 62.34 70.31 42.36 42.5 41.87 42.5 61.85"/><polygon class="cls-4" points="43.4 56.3 69.41 56.79 69.41 55.2 43.4 54.71 43.4 56.3"/><polygon class="cls-4" points="44.06 51.11 50.26 51.36 50.26 43.56 44.06 43.32 44.06 51.11"/><polygon class="cls-4" points="43.4 58.38 69.41 58.87 69.41 57.28 43.4 56.79 43.4 58.38"/><polygon class="cls-4" points="43.4 60.51 69.41 60.99 69.41 59.4 43.4 58.91 43.4 60.51"/></g><polygon class="cls-3" points="160.09 77.97 160.27 98.13 163.57 95.97 166.31 97.06 168.14 94.53 170.75 94.16 170.93 73.75 160.09 77.97"/><polyline class="cls-3" points="160.09 77.97 120.89 77.42 137 72.77 170.93 73.75"/><polygon class="cls-3" points="35.54 13.41 123.68 15.27 134.25 13.62 44.34 11.8 35.54 13.41"/><polygon class="cls-3" points="123.68 15.27 123.68 28.2 126.56 27.08 129.42 27.55 131.72 26.08 134.25 25.86 134.25 13.62 123.68 15.27"/></svg>