<?xml version="1.0" encoding="utf-8"?>
<!-- Generator: Adobe Illustrator 25.2.3, SVG Export Plug-In . SVG Version: 6.00 Build 0)  -->
<svg version="1.1" id="Layer_1" xmlns="http://www.w3.org/2000/svg" xmlns:xlink="http://www.w3.org/1999/xlink" x="0px" y="0px"
	 viewBox="0 0 16 16" style="enable-background:new 0 0 16 16;" xml:space="preserve">
<style type="text/css">
	.st0{fill:#4A6068;}
</style>
<path class="st0" d="M0.73,14.06c0,0.56,0.45,1.02,1.02,1.02h12.21c0.56,0,1.02-0.45,1.02-1.02V4.9H0.73V14.06z M5.82,7.32
	c0-0.21,0.17-0.38,0.38-0.38h3.31c0.21,0,0.38,0.17,0.38,0.38v0.25c0,0.21-0.17,0.38-0.38,0.38H6.2c-0.21,0-0.38-0.17-0.38-0.38
	V7.32z M14.98,0.83H0.73c-0.56,0-1.02,0.45-1.02,1.02v1.53c0,0.28,0.23,0.51,0.51,0.51h15.27c0.28,0,0.51-0.23,0.51-0.51V1.85
	C16,1.29,15.55,0.83,14.98,0.83z"/>
</svg>
