<?xml version="1.0" encoding="utf-8"?>
<!-- Generator: Adobe Illustrator 25.2.3, SVG Export Plug-In . SVG Version: 6.00 Build 0)  -->
<svg version="1.1" id="Layer_1" xmlns="http://www.w3.org/2000/svg" xmlns:xlink="http://www.w3.org/1999/xlink" x="0px" y="0px"
	 viewBox="0 0 16 16" style="enable-background:new 0 0 16 16;" xml:space="preserve">
<style type="text/css">
	.st0{fill:#4A6068;}
</style>
<path class="st0" d="M15.91,9.09l-2.01,3.45c-0.32,0.55-0.9,0.88-1.54,0.88H1.25c-0.51,0-0.84-0.56-0.58-1l2.01-3.45
	c0.32-0.55,0.9-0.88,1.54-0.88h11.11C15.85,8.09,16.17,8.65,15.91,9.09z M4.22,7.2h9.11V5.87c0-0.74-0.6-1.33-1.33-1.33H7.56
	L5.78,2.75H1.33C0.6,2.75,0,3.35,0,4.09v7.72l1.92-3.29C2.39,7.71,3.28,7.2,4.22,7.2z"/>
</svg>
