<?xml version="1.0" encoding="utf-8"?>
<!-- Generator: Adobe Illustrator 25.2.3, SVG Export Plug-In . SVG Version: 6.00 Build 0)  -->
<svg version="1.1" id="Layer_1" xmlns="http://www.w3.org/2000/svg" xmlns:xlink="http://www.w3.org/1999/xlink" x="0px" y="0px"
	 viewBox="0 0 16 16" style="enable-background:new 0 0 16 16;" xml:space="preserve">
<style type="text/css">
	.st0{fill:#4A6068;}
</style>
<path class="st0" d="M9.2,11.83H6.8c-0.4,0-0.72-0.32-0.72-0.72V6.08H3.46c-0.53,0-0.8-0.64-0.42-1.02l4.55-4.56
	c0.22-0.22,0.59-0.22,0.82,0l4.56,4.56c0.38,0.38,0.11,1.02-0.42,1.02H9.92v5.03C9.92,11.51,9.6,11.83,9.2,11.83z M15.66,11.59v3.35
	c0,0.4-0.32,0.72-0.72,0.72H1.06c-0.4,0-0.72-0.32-0.72-0.72v-3.35c0-0.4,0.32-0.72,0.72-0.72h4.07v0.24c0,0.92,0.75,1.68,1.68,1.68
	H9.2c0.92,0,1.68-0.75,1.68-1.68v-0.24h4.07C15.34,10.87,15.66,11.19,15.66,11.59z M11.95,14.22c0-0.33-0.27-0.6-0.6-0.6
	s-0.6,0.27-0.6,0.6s0.27,0.6,0.6,0.6S11.95,14.55,11.95,14.22z M13.87,14.22c0-0.33-0.27-0.6-0.6-0.6s-0.6,0.27-0.6,0.6
	s0.27,0.6,0.6,0.6S13.87,14.55,13.87,14.22z"/>
</svg>
