<?xml version="1.0" encoding="UTF-8" standalone="no"?>
<!-- Created with Inkscape (http://www.inkscape.org/) -->

<svg
   width="119.5002mm"
   height="132.04445mm"
   viewBox="0 0 119.5002 132.04444"
   version="1.1"
   id="svg1"
   xmlns:inkscape="http://www.inkscape.org/namespaces/inkscape"
   xmlns:sodipodi="http://sodipodi.sourceforge.net/DTD/sodipodi-0.dtd"
   xmlns="http://www.w3.org/2000/svg"
   xmlns:svg="http://www.w3.org/2000/svg">
  <sodipodi:namedview
     id="namedview1"
     pagecolor="#ffffff"
     bordercolor="#000000"
     borderopacity="0.25"
     inkscape:showpageshadow="2"
     inkscape:pageopacity="0.0"
     inkscape:pagecheckerboard="0"
     inkscape:deskcolor="#d1d1d1"
     inkscape:document-units="mm"
     showguides="true"
     inkscape:zoom="1.1044542"
     inkscape:cx="310.10794"
     inkscape:cy="285.66147"
     inkscape:window-width="1440"
     inkscape:window-height="1212"
     inkscape:window-x="321"
     inkscape:window-y="57"
     inkscape:window-maximized="0"
     inkscape:current-layer="layer1" />
  <defs
     id="defs1" />
  <g
     inkscape:label="Livello 1"
     inkscape:groupmode="layer"
     id="layer1">
    <path
       id="path3-0-9-7-2-6-7-3"
       style="color:#000000;fill:#ffffff;fill-opacity:1;fill-rule:evenodd;stroke-linecap:round;stroke-linejoin:round;-inkscape-stroke:none"
       d="m 10.65207,0.03030435 c -0.4558,-0.0604 -0.91904,-0.030300002331 -1.36323,0.0884 -0.89641,0.239 -1.66127,0.82412 -2.12648,1.62676995 C 2.60803,9.6163743 0,18.772334 0,28.505594 c 0,29.50572 23.99442,53.49958 53.5001,53.49958 1.93283,2e-5 3.49978,-1.5667 3.50004,-3.49953 2e-5,-1.93303 -1.56701,-3.50006 -3.50004,-3.50004 -8.29903,0 -16.07686,-2.17322 -22.81463,-5.96708 h 10.31461 c 1.65671,-10e-5 2.99972,-1.34311 2.99982,-2.99982 1.8e-4,-1.65691 -1.34291,-3.00023 -2.99982,-3.00033 H 22.33146 c -2.18357,-1.97143 -4.17661,-4.14894 -5.95313,-6.49986 h 12.12174 c 1.65671,-10e-5 2.99972,-1.34311 2.99982,-2.99982 -10e-5,-1.65671 -1.34311,-2.99972 -2.99982,-2.99982 H 12.5274 c -1.1166,-2.07601 -2.07426,-4.24913 -2.86959,-6.50037 h 25.09201 c 1.65691,1.8e-4 3.00023,-1.34291 3.00033,-2.99982 -10e-5,-1.65691 -1.34342,-3 -3.00033,-2.99982 H 7.97781 c -0.63865,-3.07676 -0.97772,-6.26426 -0.97772,-9.53327 0,-8.48531 2.26297,-16.41382 6.22081,-23.2538697 0.96782,-1.67265 0.3969,-3.81315 -1.27537,-4.78161995 -0.39808,-0.23013 -0.83761,-0.37957 -1.29346,-0.43977 z M 41.00008,25.005524 c -1.93303,-2e-5 -3.50006,1.56701 -3.50004,3.50004 -3e-5,1.93303 1.56701,3.50007 3.50004,3.50005 h 8.99997 v 9.03304 c -2e-5,1.93303 1.56702,3.50007 3.50005,3.50004 1.93303,2e-5 3.50006,-1.56701 3.50004,-3.50004 v -12.53309 c -1.7e-4,-1.93295 -1.56709,-3.49987 -3.50004,-3.50004 z m 25.00003,25.0331 c -1.93303,-3e-5 -3.50007,1.56701 -3.50005,3.50004 -3e-5,1.93304 1.56701,3.50008 3.50005,3.50005 8.34849,0 16.16915,2.19926 22.93452,6.03529 H 78.50012 c -1.65691,-1.8e-4 -3.00023,1.3429 -3.00033,2.99981 10e-5,1.65691 1.34342,3 3.00033,2.99982 h 18.74666 c 2.17152,1.9693 4.15333,4.14295 5.92005,6.48849 l -12.16101,-0.0238 c -1.65691,-0.003 -3.00278,1.33722 -3.00602,2.99413 -0.003,1.65691 1.33722,3.00278 2.99413,3.00602 l 16.01143,0.0305 c 1.11336,2.0777 2.06843,4.25192 2.86029,6.50451 h -6.3345 c -1.65692,1e-4 -3.00001,1.34342 -2.99982,3.00034 1e-4,1.65671 1.34311,2.99971 2.99982,2.99981 h 8.00726 c 0.43362,2.10515 0.71571,4.26511 0.85525,6.464726 H 91.00013 c -1.65711,-1.8e-4 -3.00051,1.34322 -3.00033,3.00033 1e-4,1.65691 1.34342,3 3.00033,2.99982 h 21.36924 c -0.15246,1.98649 -0.43025,3.9363 -0.80098,5.85339 h -8.03724 c -1.93303,-2e-5 -3.50006,1.56701 -3.50004,3.50004 -3e-5,1.93303 1.56701,3.50007 3.50004,3.50005 h 10.93163 c 1.60066,2.1e-4 2.99755,-1.08538 3.39256,-2.63654 1.0749,-4.22969 1.64486,-8.66125 1.64486,-13.21676 0,-29.505706 -23.9944,-53.500086 -53.50009,-53.500086 z m -25.00003,0.50022 c -1.65671,1e-4 -2.99971,1.34311 -2.99981,2.99982 10e-5,1.65671 1.3431,2.99972 2.99981,2.99982 H 53.5001 c 1.65671,-10e-5 2.99971,-1.34311 2.99981,-2.99982 -1e-4,-1.65671 -1.3431,-2.99972 -2.99981,-2.99982 z m 18.75028,12.00031 c -1.93303,-2e-5 -3.50006,1.56701 -3.50004,3.50004 -2e-5,1.93303 1.56701,3.50006 3.50004,3.50004 1.93303,3e-5 3.50007,-1.56701 3.50005,-3.50004 2e-5,-1.93303 -1.56702,-3.50007 -3.50005,-3.50004 z m 6.32365,12.9992 c -1.65772,-0.005 -3.00555,1.33485 -3.00964,2.99258 -0.004,1.65672 1.33535,3.0032 2.99207,3.00757 l 12.43593,0.0351 c 1.65671,0.004 3.00319,-1.33535 3.00757,-2.99206 0.004,-1.65672 -1.33535,-3.0032 -2.99207,-3.00757 z m -0.0739,12.53515 c -1.65712,-1.8e-4 -3.00052,1.34322 -3.00033,3.00034 10e-5,1.65691 1.34342,2.99999 3.00033,2.99981 h 18.74976 c 1.65691,1.8e-4 3.00027,-1.58556 3.00033,-2.99981 6e-5,-1.41437 -1.34321,-3.00052 -3.00033,-3.00034 z m 0.0739,11.965166 c -1.93658,-0.005 -3.50918,1.56345 -3.50935,3.50004 v 25.00571 c -2e-5,1.93303 1.56701,3.50006 3.50004,3.50004 1.93283,-2.6e-4 3.49955,-1.56721 3.49953,-3.50004 v -21.49585 l 8.92607,0.0253 c 1.93303,0.005 3.50448,-1.55718 3.50987,-3.49022 0.005,-1.93303 -1.55719,-3.50447 -3.49023,-3.50986 z m 12.42611,12.85347 c -1.65691,-1.8e-4 -3.00023,1.34291 -3.00033,2.99982 -1.8e-4,1.65711 1.34322,3.00051 3.00033,3.00033 h 12.50001 c 1.65691,-1e-4 3,-1.34342 2.99982,-3.00033 -1e-4,-1.65671 -1.34311,-2.99972 -2.99982,-2.99982 z"
       sodipodi:nodetypes="cccsscsccsccccccccccccssccssscsssccsssscccccccsccccsccccscccsssccsscccccccssssscsccccccsccaccccccccsscccsccscc" />
  </g>
</svg>
